<?xml version="1.0" encoding="UTF-8" standalone="no"?>
<!-- Created with Inkscape (http://www.inkscape.org/) -->

<svg
   width="221.02672mm"
   height="43.259747mm"
   viewBox="0 0 221.02672 43.259747"
   version="1.1"
   id="svg1"
   xml:space="preserve"
   inkscape:version="1.3.2 (091e20ef0f, 2023-11-25, custom)"
   sodipodi:docname="Nightcord-title.svg"
   xmlns:inkscape="http://www.inkscape.org/namespaces/inkscape"
   xmlns:sodipodi="http://sodipodi.sourceforge.net/DTD/sodipodi-0.dtd"
   xmlns="http://www.w3.org/2000/svg"
   xmlns:svg="http://www.w3.org/2000/svg"><sodipodi:namedview
     id="namedview1"
     pagecolor="#505050"
     bordercolor="#ffffff"
     borderopacity="1"
     inkscape:showpageshadow="0"
     inkscape:pageopacity="0"
     inkscape:pagecheckerboard="1"
     inkscape:deskcolor="#505050"
     inkscape:document-units="mm"
     inkscape:zoom="0.75544333"
     inkscape:cx="430.21096"
     inkscape:cy="166.78948"
     inkscape:window-width="1920"
     inkscape:window-height="1052"
     inkscape:window-x="0"
     inkscape:window-y="0"
     inkscape:window-maximized="1"
     inkscape:current-layer="layer1" /><defs
     id="defs1" /><g
     inkscape:label="Layer 1"
     inkscape:groupmode="layer"
     id="layer1"
     transform="translate(6.0721733,-147.00772)"><path
       style="fill:#eeedf0;fill-opacity:1;stroke-width:0.85427"
       d="m 101.37796,182.39623 c -0.6614,-0.11001 -1.780225,-0.429 -2.48628,-0.70886 l -1.283735,-0.50884 -0.06449,-2.18638 -0.06449,-2.18639 1.61848,0.8304 c 1.494895,0.76697 1.767335,0.83042 3.567885,0.83093 1.56448,4.4e-4 2.15025,-0.0992 2.96653,-0.50465 1.18967,-0.59091 2.00388,-1.6813 2.17532,-2.91315 l 0.12192,-0.87613 -0.49624,0.74011 c -0.27294,0.40706 -0.96781,1.01734 -1.54417,1.35616 -0.94227,0.55392 -1.2644,0.61604 -3.19517,0.61604 -1.66024,0 -2.32666,-0.0955 -2.938331,-0.42086 -1.117749,-0.59462 -2.220902,-1.6874 -2.769559,-2.7435 -0.567907,-1.09316 -0.788105,-3.85969 -0.416607,-5.23416 0.412874,-1.52754 1.570141,-3.0084 2.96014,-3.78785 1.132507,-0.63505 1.424187,-0.69709 3.277367,-0.69709 1.80773,0 2.15092,0.0686 3.08216,0.61603 0.57636,0.33882 1.2612,0.94909 1.52187,1.35615 l 0.47394,0.74013 0.004,-1.18665 0.004,-1.18663 h 2.96001 2.96001 l -0.098,6.04619 c -0.11228,6.93148 -0.21709,7.44113 -1.91961,9.33475 -0.56568,0.62917 -1.53268,1.39943 -2.1489,1.71169 -2.06381,1.0458 -5.41897,1.43643 -8.26772,0.96256 z m 5.02271,-9.55535 c 1.00653,-0.42056 1.49144,-1.16881 1.49144,-2.30142 0,-3.08197 -5.07433,-3.33351 -5.57048,-0.27613 -0.33403,2.0584 1.91707,3.48088 4.07904,2.57755 z m 47.37464,5.19595 c -1.77242,-0.39908 -2.75285,-0.87195 -3.83504,-1.84964 -3.12779,-2.82577 -2.91276,-8.27632 0.41755,-10.58423 2.75886,-1.91188 7.98178,-2.28655 10.92728,-0.78388 l 0.85315,0.43525 v 2.16683 c 0,1.97838 -0.0344,2.1519 -0.39554,1.99513 -2.44446,-1.06113 -3.96205,-1.23217 -5.87973,-0.66268 -2.69339,0.79985 -2.87484,3.49281 -0.30762,4.56547 1.20107,0.50184 3.72362,0.4343 5.22674,-0.13994 0.68373,-0.26121 1.31942,-0.47497 1.41266,-0.47503 0.0932,-7e-5 0.16952,0.91322 0.16952,2.02952 v 2.02963 l -0.92807,0.47347 c -1.99006,1.01525 -5.21128,1.35167 -7.6609,0.8001 z m 16.22422,0.0849 c -1.41152,-0.2378 -3.27763,-1.10921 -4.30263,-2.00918 -1.79739,-1.57812 -2.60705,-4.61355 -1.88924,-7.08272 1.01665,-3.49719 4.48427,-5.37776 9.37277,-5.08307 2.66896,0.16089 4.32725,0.81652 5.80638,2.29566 1.36018,1.36017 1.91157,2.73503 1.91157,4.76637 0,1.88113 -0.52384,3.28295 -1.72677,4.62089 -1.97153,2.19282 -5.4073,3.12632 -9.17208,2.49205 z m 4.00507,-4.71625 c 0.44056,-0.24939 0.79438,-0.71657 1.01015,-1.33376 0.29207,-0.83551 0.29207,-1.06315 0,-1.89005 -0.44982,-1.27349 -1.32192,-1.88519 -2.6877,-1.88519 -1.96978,0 -2.95598,0.97078 -2.95598,2.90976 0,2.31585 2.40825,3.45889 4.63353,2.19924 z m 25.2409,4.53324 c -2.5026,-0.89487 -3.88983,-3.07126 -4.05698,-6.36487 -0.16453,-3.24202 0.97699,-5.57432 3.37974,-6.90532 1.08325,-0.60006 1.40612,-0.66637 3.23748,-0.66492 2.32403,0.002 3.47598,0.44858 4.49672,1.74381 l 0.58385,0.74085 0.003,-2.54278 0.003,-2.54279 h 2.93833 2.93833 v 8.24993 8.24994 h -2.93833 -2.93833 v -1.13799 -1.138 l -0.68801,0.7836 c -1.49354,1.70106 -4.57945,2.37899 -6.95781,1.52854 z m 6.26732,-4.4321 c 0.91977,-0.47563 1.3785,-1.31172 1.3785,-2.51248 0,-0.8901 -0.11558,-1.16325 -0.76849,-1.81616 -0.67499,-0.67499 -0.91009,-0.76849 -1.93244,-0.76849 -1.4859,0 -2.33563,0.44517 -2.82725,1.48119 -0.63529,1.33876 0.0249,3.19802 1.32142,3.7219 0.75223,0.30395 2.13585,0.2521 2.82826,-0.10596 z M 68.337632,169.87867 v -8.02391 h 3.825215 3.825217 l 2.614367,4.80305 2.614369,4.80304 0.0021,-4.80304 0.0021,-4.80305 h 2.599295 2.599294 v 8.02938 8.02937 l -3.765629,-0.0619 -3.765629,-0.0619 -2.619593,-4.7139 -2.619594,-4.71391 -0.061,4.77041 -0.061,4.77041 h -2.594778 -2.594798 z m 20.568327,1.69519 v -6.32872 h 2.82532 2.82532 v 6.32872 6.32872 h -2.82532 -2.82532 z m 26.897051,-1.92121 v -8.24994 h 2.93834 2.93833 v 2.74574 2.74572 l 0.5119,-0.75961 c 0.28154,-0.41778 0.93887,-1.05969 1.46073,-1.42646 0.80732,-0.56742 1.21611,-0.68233 2.74128,-0.77062 1.56325,-0.0905 1.94991,-0.0317 3.02374,0.45993 2.46987,1.13074 2.88555,2.39764 2.88555,8.79455 v 4.71062 h -2.82532 -2.82532 v -3.62367 c 0,-4.91387 -0.3299,-5.64968 -2.52793,-5.63835 -1.03188,0.005 -1.75683,0.42854 -2.19215,1.27975 -0.15593,0.30491 -0.25248,1.92559 -0.25248,4.23799 v 3.74428 h -2.93833 -2.93834 z m 21.47243,3.6164 v -4.63352 h -1.80821 -1.8082 v -2.14725 -2.14724 h 1.8082 1.80821 v -1.13013 c 0,-0.62157 0.0763,-1.1335 0.16952,-1.13764 0.0932,-0.004 1.36463,-0.19266 2.82532,-0.41896 l 2.6558,-0.41144 v 1.54909 1.54908 h 2.03423 2.03423 v 2.14724 2.14725 h -2.03423 -2.03423 v 4.63352 4.63353 h -2.82532 -2.82532 z m 45.25826,-2.09073 0.0599,-6.72427 2.76881,-0.0635 2.76882,-0.0635 0.0159,1.75866 0.0159,1.75865 0.31465,-0.85732 c 0.46185,-1.25842 1.12617,-2.09055 1.99996,-2.5052 0.86815,-0.41196 2.30401,-0.47817 3.17644,-0.14647 0.57559,0.21884 0.57979,0.23906 0.57979,2.79889 v 2.57845 l -0.95825,-0.33015 c -1.18364,-0.4078 -2.62128,-0.22788 -3.46174,0.43322 -1.13552,0.8932 -1.44621,2.00714 -1.45172,5.20489 l -0.005,2.88183 h -2.9417 -2.94169 z m -91.480498,-6.53714 c -1.552097,-0.34153 -2.373268,-1.16706 -2.373268,-2.38586 0,-1.21759 1.410136,-2.20876 3.142384,-2.20876 1.843424,0 2.960307,0.84126 2.960307,2.22977 0,1.17942 -0.644282,1.94563 -1.902431,2.26243 -1.0488,0.26409 -1.083462,0.26603 -1.826992,0.10242 z"
       id="path1" /><path
       id="path14"
       style="fill:#eeedf0;fill-opacity:1;stroke:#50486a;stroke-width:0.0801504;stroke-opacity:1"
       d="m 40.630722,151.89062 c -0.897358,-0.008 -1.786515,0.0224 -2.302134,0.0964 -2.015536,0.28948 -3.685758,0.79719 -5.450233,1.65685 -4.666968,2.27381 -7.98977,6.37383 -9.258163,11.42333 -0.368867,1.46847 -0.496282,2.52309 -0.498904,4.12774 -0.0054,3.29359 0.824928,6.32344 2.482002,9.05702 1.328283,2.19118 3.267455,4.20164 5.391529,5.58954 3.417316,2.23296 7.534549,3.18319 11.688816,2.69773 2.990108,-0.34942 5.959567,-1.58122 8.545735,-3.54494 0.799975,-0.60743 2.25774,-2.04992 2.919386,-2.8887 2.335938,-2.96133 3.61324,-6.45848 3.752357,-10.27335 0.179184,-4.91356 -1.74337,-9.65871 -5.301984,-13.08597 -2.678171,-2.57932 -5.854559,-4.13664 -9.616494,-4.71448 -0.548873,-0.0843 -1.454556,-0.13255 -2.351913,-0.14119 z m 5.273806,6.02708 c 0.740269,-0.008 1.480111,0.0327 2.003136,0.12728 2.339975,0.42309 4.290521,1.41317 5.976219,3.03335 1.600924,1.53869 2.598396,3.2673 3.180501,5.51175 0.223879,0.86319 0.239728,1.02352 0.249534,2.52474 0.01157,1.77424 -0.104357,2.53249 -0.604728,3.95774 -1.303782,3.71366 -4.544862,6.50612 -8.473567,7.30043 -0.886609,0.17925 -2.500656,0.25869 -3.374774,0.1661 -3.402381,-0.36047 -6.459376,-2.20716 -8.297137,-5.01224 -0.816862,-1.24681 -1.464015,-2.8047 -1.731376,-4.16782 -0.167898,-0.85603 -0.148555,-3.42475 0.03225,-4.28806 0.2239,-1.06907 0.508924,-1.88535 1.021606,-2.92548 1.54784,-3.14024 4.437419,-5.32308 8.012853,-6.05277 0.524495,-0.10705 1.265215,-0.1662 2.005485,-0.17502 z m -3.306833,9.03712 c -0.846884,-0.0618 -1.703367,0.41543 -2.064813,1.25564 -0.146646,0.3409 -0.172703,0.51982 -0.142768,0.98123 0.04105,0.63279 0.168433,0.93379 0.557607,1.31746 0.61082,0.60218 1.387429,0.79032 2.166413,0.52489 0.805232,-0.27437 1.424338,-1.10817 1.425017,-1.91922 6.24e-4,-0.85796 -0.369879,-1.49244 -1.116469,-1.91188 -0.261467,-0.14689 -0.542692,-0.22752 -0.824987,-0.24812 z m 8.673,0.0387 c -0.314903,5.6e-4 -0.630337,0.0514 -0.852224,0.15216 -0.958303,0.43511 -1.446332,1.54683 -1.1351,2.58563 0.13106,0.43744 0.664185,1.01376 1.144963,1.23763 0.473209,0.22035 1.062769,0.24697 1.563091,0.0704 0.825226,-0.29115 1.381498,-1.07558 1.381498,-1.94834 0,-0.87068 -0.462221,-1.58958 -1.253134,-1.94881 -0.21984,-0.0999 -0.534191,-0.14937 -0.849094,-0.14872 z" /></g></svg>
