<?xml version="1.0" encoding="UTF-8" standalone="no"?>
<svg
   viewBox="0.670018 0.669981 435.07533 434.85793"
   version="1.1"
   id="svg1"
   sodipodi:docname="K-logo.svg"
   xml:space="preserve"
   width="435.07535"
   height="434.85794"
   inkscape:export-filename="K-nightcord.png"
   inkscape:export-xdpi="100.24322"
   inkscape:export-ydpi="100.24322"
   inkscape:version="1.3.2 (091e20ef0f, 2023-11-25, custom)"
   xmlns:inkscape="http://www.inkscape.org/namespaces/inkscape"
   xmlns:sodipodi="http://sodipodi.sourceforge.net/DTD/sodipodi-0.dtd"
   xmlns="http://www.w3.org/2000/svg"
   xmlns:svg="http://www.w3.org/2000/svg"><defs
     id="defs1" /><sodipodi:namedview
     id="namedview1"
     pagecolor="#505050"
     bordercolor="#ffffff"
     borderopacity="1"
     inkscape:showpageshadow="0"
     inkscape:pageopacity="0"
     inkscape:pagecheckerboard="1"
     inkscape:deskcolor="#505050"
     inkscape:zoom="0.5"
     inkscape:cx="-40"
     inkscape:cy="310"
     inkscape:window-width="1920"
     inkscape:window-height="1052"
     inkscape:window-x="0"
     inkscape:window-y="0"
     inkscape:window-maximized="1"
     inkscape:current-layer="svg1" /><path
     id="path14"
     style="fill:#eeedf0;fill-opacity:1;stroke:#50486a;stroke-opacity:1"
     d="m 219.62737,1.1876762 c -11.19593,-0.107844 -22.28951,0.279171 -28.72265,1.203125 -25.1469,3.611703 -45.98549,9.9461528 -68,20.6718728 C 64.677151,51.431784 23.220101,102.58586 7.3949507,165.58611 c -4.60219,18.32143 -6.191888,31.47934 -6.224608,51.5 -0.0672,41.0924 10.2922483,78.89458 30.9667983,113 16.57236,27.33831 40.76651,52.42196 67.26758,69.73828 42.636249,27.8594 94.005039,39.71511 145.835929,33.6582 37.30615,-4.35956 74.3547,-19.72823 106.6211,-44.22851 9.98094,-7.57865 28.16877,-25.57589 36.42383,-36.04102 29.14438,-36.94702 45.08069,-80.57943 46.8164,-128.17578 C 437.33757,163.73304 413.35076,104.53002 368.95159,61.769704 335.53735,29.588844 295.90701,10.158924 248.97112,2.9493942 242.1231,1.8975152 230.8233,1.2955192 219.62737,1.1876762 Z M 285.4262,76.384944 c 9.236,-0.10998 18.46667,0.40799 24.99219,1.58789 29.19477,5.27878 53.53081,17.63141 74.5625,37.845696 19.97397,19.19767 32.41896,40.76463 39.68164,68.76758 2.79319,10.76978 2.99096,12.76995 3.11328,31.5 0.14456,22.13643 -1.30198,31.59662 -7.54492,49.37891 -16.26666,46.33365 -56.70408,81.17372 -105.7207,91.08398 -11.06181,2.2365 -31.19951,3.22766 -42.10547,2.07227 -42.44991,-4.49725 -80.59064,-27.53753 -103.51953,-62.53516 -10.1916,-15.556 -18.26582,-34.99287 -21.60157,-52 -2.09479,-10.68026 -1.85346,-42.72896 0.40235,-53.5 2.79349,-13.33839 6.34961,-23.52289 12.74609,-36.5 19.31169,-39.17933 55.36361,-66.413526 99.97266,-75.517576 6.54388,-1.33551 15.78548,-2.07362 25.02148,-2.18359 z M 244.16839,189.13689 c -10.56617,-0.77099 -21.2521,5.18313 -25.76172,15.66602 -1.82964,4.25311 -2.15476,6.48553 -1.78125,12.24218 0.51227,7.89519 2.10147,11.65058 6.95703,16.4375 7.6209,7.51319 17.3103,9.86043 27.0293,6.54883 10.04654,-3.42319 17.77081,-13.82614 17.7793,-23.94531 0.009,-10.70434 -4.61482,-18.62049 -13.92969,-23.85352 -3.2622,-1.83268 -6.77091,-2.8387 -10.29297,-3.0957 z m 108.20898,0.48242 c -3.92889,0.008 -7.86443,0.64147 -10.63281,1.89844 -11.95629,5.42873 -18.04519,19.29916 -14.16211,32.25977 1.63519,5.45774 8.28671,12.64815 14.28516,15.4414 5.904,2.74927 13.25969,3.08131 19.50195,0.87891 10.29597,-3.63263 17.23633,-13.41957 17.23633,-24.3086 0,-10.8632 -5.76692,-19.83249 -15.63477,-24.31445 -2.74286,-1.24581 -6.66485,-1.86343 -10.59375,-1.85547 z" /></svg>
