<?xml version="1.0" encoding="UTF-8" standalone="no"?>
<svg
   viewBox="0.670018 0.669981 627.56858 626.31669"
   version="1.1"
   id="svg1"
   sodipodi:docname="K-nightcord.svg"
   xml:space="preserve"
   width="627.5686"
   height="626.31671"
   inkscape:export-filename="K-nightcord.png"
   inkscape:export-xdpi="100.24322"
   inkscape:export-ydpi="100.24322"
   inkscape:version="1.3.2 (091e20ef0f, 2023-11-25, custom)"
   xmlns:inkscape="http://www.inkscape.org/namespaces/inkscape"
   xmlns:sodipodi="http://sodipodi.sourceforge.net/DTD/sodipodi-0.dtd"
   xmlns="http://www.w3.org/2000/svg"
   xmlns:svg="http://www.w3.org/2000/svg"><defs
     id="defs1" /><sodipodi:namedview
     id="namedview1"
     pagecolor="#505050"
     bordercolor="#ffffff"
     borderopacity="1"
     inkscape:showpageshadow="0"
     inkscape:pageopacity="0"
     inkscape:pagecheckerboard="1"
     inkscape:deskcolor="#505050"
     inkscape:zoom="0.5"
     inkscape:cx="58"
     inkscape:cy="406"
     inkscape:window-width="1920"
     inkscape:window-height="1052"
     inkscape:window-x="0"
     inkscape:window-y="0"
     inkscape:window-maximized="1"
     inkscape:current-layer="svg1" /><ellipse
     style="fill:#eeedf0;fill-opacity:1;stroke:#50486a;stroke-opacity:1"
     id="path14"
     cx="322.79367"
     cy="333.68692"
     rx="239.00209"
     ry="257.38687" /><path
     style="display:inline;fill:#50486a;fill-opacity:1"
     d="m 287.64546,626.64207 c -13.57303,-1.15667 -37.7495,-5.32097 -50,-8.61232 -4.125,-1.10826 -8.85,-2.36047 -10.5,-2.78267 -7.22404,-1.84851 -21.95962,-7.10204 -33.50275,-11.9444 C 130.28733,576.72499 77.353528,529.98442 42.393158,469.74923 c -14.61191,-25.17568 -28.52044,-61.30267 -34.2641,-89.00001 -4.29629,-20.71777 -7.45904,-49.1268 -7.45904,-67 0,-25.95233 4.92456,-60.26635 12.35285,-86.07392 24.42854,-84.87026 82.86364,-155.192225 161.582962,-194.452165 32.2414,-16.07986 59.47976,-24.5522098 98.53963,-30.6502398 16.20997,-2.5307 66.25642,-2.53908 83,-0.0139 53.97796,8.1406898 95.46028,24.3835498 139.20162,54.5059498 46.14839,31.78 86.08024,81.114385 108.20566,133.684275 12.16285,28.89884 18.04263,50.25441 22.78007,82.73798 2.54111,17.42385 2.54111,63.10017 0,80.52402 -5.50632,37.75562 -13.78613,65.24694 -29.17169,96.8583 -15.57802,32.0068 -33.04766,56.7323 -58.44479,82.71932 -48.48739,49.61359 -109.85269,80.54883 -181.07087,91.28074 -10.03055,1.51151 -58.62366,2.74194 -70,1.77248 z m 54.8348,-96.49617 c 37.30618,-4.35957 74.35454,-19.72784 106.62097,-44.22815 9.98095,-7.57866 28.16945,-25.57546 36.42452,-36.0406 29.14441,-36.94706 45.08133,-80.57911 46.81704,-128.17551 2.23559,-61.3043 -21.75193,-120.50825 -66.15114,-163.26861 -33.41428,-32.1809 -73.04532,-51.60939 -119.98125,-58.818925 -13.69607,-2.10376 -45.19865,-2.40721 -58.06494,-0.5593 -25.14692,3.611705 -45.98546,9.946775 -67.99999,20.672505 -58.22763,28.36914 -99.68549,79.5216 -115.51065,142.52191 -4.6022,18.32145 -6.192772,31.47932 -6.225492,51.5 -0.0672,41.09244 10.292212,78.89456 30.966782,113.00001 16.57238,27.33834 40.76827,52.42247 67.26936,69.73881 42.6363,27.85943 94.00384,39.71477 145.83479,33.65786 z m 27.1652,-74.86124 c -42.44995,-4.49725 -80.59065,-27.53777 -103.51957,-62.53544 -10.19161,-15.55601 -18.26605,-34.99285 -21.6018,-52 -2.0948,-10.68027 -1.85426,-42.72895 0.40155,-53.5 2.7935,-13.3384 6.35015,-23.52288 12.74664,-36.5 19.31171,-39.17937 55.36409,-66.41203 99.97318,-75.51609 13.08778,-2.67103 36.96239,-2.9553 50.01345,-0.59551 29.1948,5.27879 53.52972,17.63028 74.56143,37.84459 19.97399,19.19769 32.41864,40.76403 39.68133,68.76701 2.79319,10.76979 2.99087,12.76993 3.11319,31.5 0.14456,22.13645 -1.30092,31.5982 -7.54387,49.3805 -16.26668,46.3337 -56.7048,81.17261 -105.72147,91.08288 -11.06182,2.2365 -31.19809,3.22746 -42.10406,2.07206 z M 347.85074,336.69494 c 10.04655,-3.4232 17.77089,-13.82654 17.77938,-23.94572 0.009,-10.70435 -4.61335,-18.62057 -13.92823,-23.8536 -13.04881,-7.33073 -30.04209,-1.40546 -36.05492,12.57174 -1.82964,4.25312 -2.15431,6.48498 -1.7808,12.24164 0.51227,7.89519 2.10156,11.65007 6.95713,16.437 7.62091,7.51319 17.30843,9.86054 27.02744,6.54894 z m 110.75932,0.0668 c 10.29598,-3.63263 17.23541,-13.42015 17.23541,-24.30919 0,-10.86321 -5.76677,-19.83092 -15.63463,-24.31288 -5.48574,-2.49162 -15.69009,-2.47094 -21.22685,0.043 -11.9563,5.42874 -18.0456,19.2991 -14.16251,32.25972 1.63519,5.45775 8.28743,12.648 14.28588,15.44125 5.90401,2.74927 13.26043,3.08048 19.5027,0.87808 z"
     id="path1" /></svg>
